<svg xmlns="http://www.w3.org/2000/svg" xmlns:xlink="http://www.w3.org/1999/xlink" width="48px" height="48px" viewBox="0 0 48 48" version="1.1">
<defs>
<linearGradient id="linear0" gradientUnits="userSpaceOnUse" x1="176.426056" y1="174.862732" x2="245.137283" y2="174.862732">
<stop offset="0" style="stop-color:rgb(0%,56.078431%,100%);stop-opacity:1;"/>
<stop offset="1" style="stop-color:rgb(0%,79.607843%,100%);stop-opacity:1;"/>
</linearGradient>
<linearGradient id="linear1" gradientUnits="userSpaceOnUse" x1="189.225723" y1="154.789536" x2="226.636932" y2="190.588196">
<stop offset="0" style="stop-color:rgb(0%,39.215686%,100%);stop-opacity:1;"/>
<stop offset="1" style="stop-color:rgb(34.117647%,56.862745%,100%);stop-opacity:1;"/>
</linearGradient>
</defs>
<g id="surface1">
<path style="fill:none;stroke-width:5;stroke-linecap:butt;stroke-linejoin:miter;stroke:url(#linear0);stroke-miterlimit:10;" d="M 176.425598 207.293009 L 176.425598 142.433309 L 245.138407 142.433309 L 245.138407 207.293009 Z M 176.425598 207.293009 " transform="matrix(0.539326,0,0,0.521739,-89.572759,-68.246624)"/>
<path style="fill-rule:nonzero;fill:rgb(47.843137%,0%,100%);fill-opacity:1;stroke-width:5;stroke-linecap:butt;stroke-linejoin:miter;stroke:rgb(0%,42.352942%,100%);stroke-opacity:1;stroke-miterlimit:10;" d="M 168.719218 151.425171 C 168.719218 151.425171 168.719218 142.620483 168.719218 139.311239 C 168.719218 137.005249 172.557922 133.441447 175.006002 133.441447 C 178.424622 133.441447 187.340556 133.441447 187.340556 133.441447 L 187.340556 151.425171 Z M 168.719218 151.425171 " transform="matrix(0.539326,0,0,0.521739,-89.572759,-68.246624)"/>
<path style="fill-rule:nonzero;fill:rgb(47.843137%,0%,100%);fill-opacity:1;stroke-width:5;stroke-linecap:butt;stroke-linejoin:miter;stroke:rgb(0%,42.352942%,100%);stroke-opacity:1;stroke-miterlimit:10;" d="M 234.085836 151.282918 L 234.085836 133.306681 C 234.085836 133.306681 245.304993 133.306681 248.658427 133.306681 C 250.42568 133.306681 252.707174 136.55603 252.707174 138.742228 C 252.707174 142.066447 252.707174 151.282918 252.707174 151.282918 Z M 234.085836 151.282918 " transform="matrix(0.539326,0,0,0.521739,-89.572759,-68.246624)"/>
<path style="fill-rule:nonzero;fill:rgb(47.843137%,0%,100%);fill-opacity:1;stroke-width:5;stroke-linecap:butt;stroke-linejoin:miter;stroke:rgb(0%,42.352942%,100%);stroke-opacity:1;stroke-miterlimit:10;" d="M 187.202942 196.878621 L 187.202942 214.862345 C 187.202942 214.862345 177.316467 214.862345 173.876119 214.862345 C 171.71051 214.862345 168.581604 211.919963 168.581604 209.86853 C 168.581604 206.551799 168.581604 196.878621 168.581604 196.878621 Z M 187.202942 196.878621 " transform="matrix(0.539326,0,0,0.521739,-89.572759,-68.246624)"/>
<path style="fill-rule:nonzero;fill:rgb(47.843137%,0%,100%);fill-opacity:1;stroke-width:5;stroke-linecap:butt;stroke-linejoin:miter;stroke:rgb(0%,42.352942%,100%);stroke-opacity:1;stroke-miterlimit:10;" d="M 233.948222 214.720093 L 233.948222 196.743856 L 252.56956 196.743856 C 252.56956 196.743856 252.56956 205.982788 252.56956 209.307007 C 252.56956 211.485718 249.418925 214.720093 247.246073 214.720093 C 243.812968 214.720093 233.948222 214.720093 233.948222 214.720093 Z M 233.948222 214.720093 " transform="matrix(0.539326,0,0,0.521739,-89.572759,-68.246624)"/>
<path style="fill-rule:nonzero;fill:url(#linear1);stroke-width:2.5;stroke-linecap:butt;stroke-linejoin:miter;stroke:rgb(0%,0%,0%);stroke-opacity:1;stroke-miterlimit:10;" d="M 226.640198 190.589559 C 217.564921 200.075562 199.262268 194.610067 188.93398 184.727254 C 178.59845 174.836955 198.668355 183.387085 207.743632 173.901082 C 215.631083 165.650431 204.310527 162.723022 209.438456 155.71521 C 214.566386 148.707397 223.018778 154.225301 224.365946 155.513062 C 234.694234 165.403361 235.715474 181.103556 226.640198 190.589559 Z M 226.640198 190.589559 " transform="matrix(0.539326,0,0,0.521739,-89.572759,-68.246624)"/>
<path style="fill-rule:nonzero;fill:rgb(0%,0%,0%);fill-opacity:1;stroke-width:2.5;stroke-linecap:round;stroke-linejoin:miter;stroke:rgb(100%,100%,100%);stroke-opacity:1;stroke-miterlimit:10;" d="M 247.34023 208.311239 L 230.037089 207.839559 L 219.448059 219.691447 L 220.034729 184.173218 Z M 247.34023 208.311239 " transform="matrix(0.539326,0,0,0.521739,-89.572759,-68.246624)"/>
</g>
</svg>
